# xmcd
#
# Track frame offsets: 
#        150
#        6955
#        31280
#        47709
#        67065
#        89095
#        108437
#        122627
#        144983
#        160355
#        174561
#        193426
#        198289
#        221385
#        243843
#        266728
#        287395
#
# Disc length: 3984 seconds
#
# Revision: 0
# Processed by: cddbd v1.5.2PL0 Copyright (c) Steve Scherf et al.
# Submitted via: ExactAudioCopy v1.0b3
#
DISCID=fb0f8e11
DTITLE=Ozrosaurus - Rhyme and Blues
DYEAR=2006
DGENRE=Hip Hop
TTITLE0=Intro
TTITLE1=All My People ~ It's OS III ~
TTITLE2=I See U
TTITLE3=Welcome To The Bay Blues Recordz feat. Kayzabro
TTITLE4=Life Is One Time ~Rhyme and Blues~ feat. 般若, SAY
TTITLE5=My Dear Son
TTITLE6=The True Story
TTITLE7=The Phoenix [will rise]
TTITLE8=Henz Up
TTITLE9=Disrespect 4 U feat. Zeebra
TTITLE10=On And On [DJ SN-Z Remix]
TTITLE11=D'z Nutz FM '06 [Vol. 2]
TTITLE12=Clap Ya!! feat. Big Ron, Ghetto Inc.
TTITLE13=眩暈 [めまい]
TTITLE14=Soul Dier feat. Sorasanzen
TTITLE15=風吹く土曜 feat. SAY
TTITLE16=Outro
EXTD=
EXTT0=
EXTT1=
EXTT2=
EXTT3=
EXTT4=
EXTT5=
EXTT6=
EXTT7=
EXTT8=
EXTT9=
EXTT10=
EXTT11=
EXTT12=
EXTT13=
EXTT14=
EXTT15=
EXTT16=
PLAYORDER=
